<svg width="80" height="74" viewBox="0 0 80 74" fill="none" xmlns="http://www.w3.org/2000/svg">
<rect y="2.95996" width="80" height="70.9388" rx="5" fill="#2563EB"/>
<path d="M16.05 52.25C14.55 52.25 13.8 51.55 13.8 50.15C13.8 49.35 14.2 48.55 15 47.75L30 32.15C31.1 31.05 32 30.35 32.7 30.05C33.5 29.75 34.35 29.6 35.25 29.6H45.15C46.15 29.6 47 29.75 47.7 30.05C48.5 30.35 49.4 31.05 50.4 32.15L65.4 47.75C66.2 48.55 66.6 49.35 66.6 50.15C66.6 51.55 65.85 52.25 64.35 52.25H58.05C57.25 52.25 56.4 52.2 55.5 52.1C54.7 51.9 53.9 51.6 53.1 51.2L40.2 43.55L27.3 51.2C26.6 51.6 25.8 51.9 24.9 52.1C24 52.2 23.15 52.25 22.35 52.25H16.05Z" fill="white"/>
</svg>
